# xmcd CD database file
#
# Track frame offsets:
#	150
#	12109
#	28247
#	47382
#	63452
#	79882
#	96532
#	113692
#	129660
#	150727
#	163392
#	183665
#
# Disc length: 2764 seconds
#
# Revision: 0
# Processed by: cddbd v1.4PL0 Copyright (c) Steve Scherf et al.
# Submitted via: Feurio! 1.65 - http://www.feurio.com
#
DISCID=a10aca0c
DTITLE=Rick Vito - Pink and Black
DYEAR=1998
DGENRE=Blues Rock
TTITLE0=I Wouldn't Lay My Guitar Down
TTITLE1=Homework
TTITLE2=Lazy Love
TTITLE3=Let's Get Some Work Done
TTITLE4=Streamliner
TTITLE5=Trouble In Trying Times
TTITLE6=I Loved Another Woman
TTITLE7=Blues Party
TTITLE8=I Stand Accused
TTITLE9=Leap Frog Boogie
TTITLE10=The Whole World Was Crying
TTITLE11=Living Without You
EXTD=
EXTT0=
EXTT1=
EXTT2=
EXTT3=
EXTT4=
EXTT5=
EXTT6=
EXTT7=
EXTT8=
EXTT9=
EXTT10=
EXTT11=
PLAYORDER=
